# xmcd
#
# Track frame offsets: 
#        150
#        17892
#        35391
#        50129
#        68480
#        86403
#        100831
#        119815
#        136550
#        153896
#
# Disc length: 2334 seconds
#
# Revision: 1
# Processed by: cddbd v1.5.2PL0 Copyright (c) Steve Scherf et al.
# Submitted via: ExactAudioCopy v0.95b4
#
DISCID=7a091c0a
DTITLE=GONTITI - Legacy of Madam Q
DYEAR=1990
DGENRE=Instrumental
TTITLE0=Mazushii Ohke
TTITLE1=Tairikufu Ni Mukatte
TTITLE2=Foolish Parade
TTITLE3=Basu De Mita Hito
TTITLE4=Little Toy
TTITLE5=Boku No Gokai
TTITLE6=Watchdog in the Afternoon
TTITLE7=Blue Flame
TTITLE8=Mousukoshi Kokode
TTITLE9=Mica
EXTD=YEAR: 1990
EXTT0=
EXTT1=
EXTT2=
EXTT3=
EXTT4=
EXTT5=
EXTT6=
EXTT7=
EXTT8=
EXTT9=
PLAYORDER=
